<svg width="23" height="24" viewBox="0 0 23 24" fill="none" xmlns="http://www.w3.org/2000/svg">
<path d="M11.8036 8.75551C10.9217 8.75551 10.0758 9.10587 9.45218 9.72952C8.82853 10.3532 8.47817 11.199 8.47817 12.081C8.47817 12.9629 8.82853 13.8088 9.45218 14.4324C10.0758 15.0561 10.9217 15.4064 11.8036 15.4064C12.6856 15.4064 13.5315 15.0561 14.1551 14.4324C14.7787 13.8088 15.1291 12.9629 15.1291 12.081C15.1291 11.199 14.7787 10.3532 14.1551 9.72952C13.5315 9.10587 12.6856 8.75551 11.8036 8.75551ZM11.8036 6.53854C13.2736 6.53854 14.6833 7.12247 15.7227 8.16188C16.7621 9.20129 17.3461 10.611 17.3461 12.081C17.3461 13.5509 16.7621 14.9607 15.7227 16.0001C14.6833 17.0395 13.2736 17.6234 11.8036 17.6234C10.3337 17.6234 8.92395 17.0395 7.88454 16.0001C6.84513 14.9607 6.26119 13.5509 6.26119 12.081C6.26119 10.611 6.84513 9.20129 7.88454 8.16188C8.92395 7.12247 10.3337 6.53854 11.8036 6.53854V6.53854ZM19.0088 6.26141C19.0088 6.6289 18.8628 6.98134 18.603 7.24119C18.3431 7.50104 17.9907 7.64703 17.6232 7.64703C17.2557 7.64703 16.9033 7.50104 16.6434 7.24119C16.3836 6.98134 16.2376 6.6289 16.2376 6.26141C16.2376 5.89393 16.3836 5.54149 16.6434 5.28164C16.9033 5.02179 17.2557 4.8758 17.6232 4.8758C17.9907 4.8758 18.3431 5.02179 18.603 5.28164C18.8628 5.54149 19.0088 5.89393 19.0088 6.26141V6.26141ZM11.8036 3.21307C9.06124 3.21307 8.61341 3.22083 7.33754 3.27736C6.46848 3.31838 5.88542 3.43477 5.34447 3.64538C4.86339 3.83161 4.51643 4.05441 4.14731 4.42465C3.80036 4.75986 3.53359 5.16909 3.36693 5.62182C3.15632 6.16498 3.03993 6.74693 3.00002 7.61488C2.94238 8.83865 2.93573 9.26653 2.93573 12.081C2.93573 14.8234 2.94349 15.2712 3.00002 16.5471C3.04103 17.415 3.15743 17.9992 3.36693 18.539C3.55537 19.0212 3.77707 19.3682 4.14509 19.7362C4.51865 20.1087 4.86561 20.3315 5.34226 20.5155C5.88985 20.7272 6.47291 20.8447 7.33754 20.8846C8.56131 20.9422 8.98918 20.9489 11.8036 20.9489C14.546 20.9489 14.9939 20.9411 16.2697 20.8846C17.1366 20.8436 17.7207 20.7272 18.2617 20.5177C18.7417 20.3304 19.0908 20.1075 19.4589 19.7395C19.8324 19.366 20.0552 19.019 20.2392 18.5424C20.4498 17.9959 20.5673 17.4117 20.6073 16.5471C20.6649 15.3233 20.6715 14.8954 20.6715 12.081C20.6715 9.33858 20.6638 8.89075 20.6073 7.61488C20.5662 6.74804 20.4498 6.16276 20.2392 5.62182C20.0722 5.16956 19.8059 4.76048 19.46 4.42465C19.1249 4.07752 18.7156 3.81073 18.2628 3.64427C17.7196 3.43366 17.1366 3.31727 16.2697 3.27736C15.046 3.21972 14.6181 3.21307 11.8036 3.21307ZM11.8036 0.996094C14.8154 0.996094 15.1912 1.00718 16.3728 1.0626C17.5534 1.11803 18.357 1.30315 19.0642 1.57805C19.7958 1.85961 20.4122 2.24093 21.0285 2.85614C21.5921 3.41027 22.0283 4.08056 22.3066 4.82038C22.5804 5.52649 22.7666 6.33125 22.822 7.51179C22.8741 8.69344 22.8885 9.06922 22.8885 12.081C22.8885 15.0927 22.8774 15.4685 22.822 16.6502C22.7666 17.8307 22.5804 18.6344 22.3066 19.3416C22.0291 20.0818 21.5928 20.7523 21.0285 21.3058C20.4742 21.8693 19.8039 22.3054 19.0642 22.5839C18.3581 22.8577 17.5534 23.0439 16.3728 23.0994C15.1912 23.1515 14.8154 23.1659 11.8036 23.1659C8.79187 23.1659 8.4161 23.1548 7.23445 23.0994C6.05391 23.0439 5.25025 22.8577 4.54304 22.5839C3.80293 22.3062 3.13251 21.87 2.57879 21.3058C2.01502 20.7518 1.57886 20.0815 1.30071 19.3416C1.0258 18.6355 0.840684 17.8307 0.785259 16.6502C0.73316 15.4685 0.71875 15.0927 0.71875 12.081C0.71875 9.06922 0.729835 8.69344 0.785259 7.51179C0.840684 6.33014 1.0258 5.5276 1.30071 4.82038C1.57809 4.08011 2.01436 3.40963 2.57879 2.85614C3.13267 2.29217 3.80304 1.85598 4.54304 1.57805C5.25025 1.30315 6.0528 1.11803 7.23445 1.0626C8.4161 1.0105 8.79187 0.996094 11.8036 0.996094Z" fill="white"/>
</svg>
