<svg width="22" height="21" viewBox="0 0 22 21" fill="none" xmlns="http://www.w3.org/2000/svg">
<path d="M5.30505 2.32355C5.30476 2.91153 5.0709 3.47531 4.65493 3.89087C4.23896 4.30643 3.67494 4.53972 3.08696 4.53942C2.49898 4.53913 1.9352 4.30527 1.51965 3.8893C1.10409 3.47333 0.8708 2.90932 0.871094 2.32134C0.871388 1.73336 1.10524 1.16958 1.52122 0.754023C1.93719 0.338467 2.5012 0.105175 3.08918 0.105469C3.67716 0.105763 4.24094 0.339619 4.6565 0.75559C5.07205 1.17156 5.30534 1.73558 5.30505 2.32355ZM5.37156 6.1811H0.937603V20.0594H5.37156V6.1811ZM12.3772 6.1811H7.96542V20.0594H12.3329V12.7766C12.3329 8.71953 17.6204 8.34265 17.6204 12.7766V20.0594H21.9989V11.2691C21.9989 4.42968 14.173 4.68464 12.3329 8.04336L12.3772 6.1811Z" fill="white"/>
</svg>
