<svg width="25" height="21" viewBox="0 0 25 21" fill="none" xmlns="http://www.w3.org/2000/svg">
<path d="M17.3122 3.32034C16.3954 3.32019 15.5152 3.67996 14.861 4.32223C14.2068 4.9645 13.8308 5.83794 13.8141 6.75459L13.7803 8.65446C13.7783 8.75647 13.7548 8.85691 13.7113 8.94918C13.6677 9.04146 13.6052 9.1235 13.5277 9.1899C13.4503 9.25631 13.3597 9.30559 13.2618 9.33451C13.164 9.36343 13.0611 9.37134 12.96 9.35772L11.077 9.10199C8.59936 8.76424 6.22542 7.6231 3.94798 5.72564C3.22663 9.71839 4.63555 12.4844 8.02879 14.6183L10.1361 15.9427C10.2363 16.0057 10.3195 16.0922 10.3784 16.1947C10.4374 16.2972 10.4703 16.4126 10.4744 16.5308C10.4784 16.649 10.4534 16.7663 10.4016 16.8727C10.3498 16.979 10.2727 17.0709 10.1772 17.1406L8.25677 18.5435C9.39911 18.6146 10.4835 18.564 11.3834 18.3854C17.0746 17.2491 20.8587 12.9669 20.8587 5.90296C20.8587 5.32637 19.6379 3.32034 17.3122 3.32034ZM11.4015 6.70996C11.4226 5.54717 11.7862 4.41644 12.4468 3.45933C13.1075 2.50222 14.0358 1.76126 15.1155 1.32923C16.1953 0.897204 17.3785 0.793302 18.517 1.03054C19.6555 1.26777 20.6988 1.8356 21.5161 2.66292C22.3737 2.65689 23.1035 2.87402 24.7356 1.88488C24.3315 3.86316 24.1325 4.72203 23.2712 5.90296C23.2712 15.1213 17.6054 19.6038 11.8563 20.7509C7.91419 21.5374 2.182 20.2455 0.539062 18.5302C1.37621 18.4651 4.77789 18.0996 6.74411 16.6605C5.08067 15.564 -1.54055 11.6677 2.81047 1.19248C4.85268 3.57728 6.92385 5.20091 9.02276 6.06219C10.4196 6.63517 10.7622 6.62311 11.4027 6.71116L11.4015 6.70996Z" fill="white"/>
</svg>
